HIERARCHY
ROOT Hips
{
	OFFSET 55.670502 -15.406714 85.542801
	CHANNELS 6 Xposition Yposition Zposition Xrotation Yrotation Zrotation
	JOINT spine
	{
		OFFSET 0.000000 -0.367607 6.392601
		CHANNELS 3 Xrotation Yrotation Zrotation
		JOINT spine1
		{
			OFFSET 0.000000 -0.000001 9.176109
			CHANNELS 3 Xrotation Yrotation Zrotation
			JOINT spine2
			{
				OFFSET 0.000000 -0.000002 8.792381
				CHANNELS 3 Xrotation Yrotation Zrotation
				JOINT Neck
				{
					OFFSET 0.000000 -1.076242 22.573708
					CHANNELS 3 Xrotation Yrotation Zrotation
					JOINT Head
					{
						OFFSET 0.000000 -0.000002 6.820114
						CHANNELS 3 Xrotation Yrotation Zrotation
						End Site
						{
							OFFSET 0.000000 5.444267 16.508499
						}
					}
				}
				JOINT RightShoulder
				{
					OFFSET -3.702209 0.515507 9.495087
					CHANNELS 3 Xrotation Yrotation Zrotation
					JOINT RightArm
					{
						OFFSET 0.000000 -0.000003 12.453697
						CHANNELS 3 Xrotation Yrotation Zrotation
						JOINT RightArmRoll
						{
							OFFSET 0.000000 -0.000001 6.286865
							CHANNELS 3 Xrotation Yrotation Zrotation
							JOINT RightForeArm
							{
								OFFSET 0.000000 -0.000003 18.311401
								CHANNELS 3 Xrotation Yrotation Zrotation
								JOINT RightForeArmRoll
								{
									OFFSET 0.000000 -0.000001 7.054825
									CHANNELS 3 Xrotation Yrotation Zrotation
									JOINT RightHand
									{
										OFFSET 0.000000 -0.000002 14.157501
										CHANNELS 3 Xrotation Yrotation Zrotation
										End Site
										{
											OFFSET 0.000000 0.000000 0.100006
										}
									}
								}
							}
						}
					}
				}
				JOINT LeftShoulder
				{
					OFFSET 3.702209 0.515507 9.495087
					CHANNELS 3 Xrotation Yrotation Zrotation
					JOINT LeftArm
					{
						OFFSET 0.000000 -0.000003 12.453697
						CHANNELS 3 Xrotation Yrotation Zrotation
						JOINT LeftArmRoll
						{
							OFFSET 0.000000 -0.000001 6.286865
							CHANNELS 3 Xrotation Yrotation Zrotation
							JOINT LeftForeArm
							{
								OFFSET 0.000000 -0.000003 18.311401
								CHANNELS 3 Xrotation Yrotation Zrotation
								JOINT LeftForeArmRoll
								{
									OFFSET 0.000000 -0.000001 7.054825
									CHANNELS 3 Xrotation Yrotation Zrotation
									JOINT LeftHand
									{
										OFFSET 0.000000 -0.000002 14.157501
										CHANNELS 3 Xrotation Yrotation Zrotation
										End Site
										{
											OFFSET 0.000000 0.000000 0.100006
										}
									}
								}
							}
						}
					}
				}
			}
		}
	}
	JOINT RightUpLeg
	{
		OFFSET -5.666149 0.871611 -1.039032
		CHANNELS 3 Xrotation Yrotation Zrotation
		JOINT RightUpLegRoll
		{
			OFFSET 0.000000 -0.000003 16.600502
			CHANNELS 3 Xrotation Yrotation Zrotation
			JOINT RightLeg
			{
				OFFSET 0.000000 0.000003 -20.557198
				CHANNELS 3 Xrotation Yrotation Zrotation
				JOINT RightLegRoll
				{
					OFFSET 0.000000 -0.000003 20.624397
					CHANNELS 3 Xrotation Yrotation Zrotation
					JOINT RightFoot
					{
						OFFSET 0.000000 -0.000003 17.166405
						CHANNELS 3 Xrotation Yrotation Zrotation
						JOINT RightToeBase
						{
							OFFSET 0.000000 -0.000003 14.350204
							CHANNELS 3 Xrotation Yrotation Zrotation
							End Site
							{
								OFFSET 0.006081 0.801059 6.949707
							}
						}
					}
				}
			}
		}
	}
	JOINT LeftUpLeg
	{
		OFFSET 5.666149 0.871611 -1.039032
		CHANNELS 3 Xrotation Yrotation Zrotation
		JOINT LeftUpLegRoll
		{
			OFFSET 0.000000 -0.000003 16.600601
			CHANNELS 3 Xrotation Yrotation Zrotation
			JOINT LeftLeg
			{
				OFFSET 0.000000 -0.000004 20.557098
				CHANNELS 3 Xrotation Yrotation Zrotation
				JOINT LeftLegRoll
				{
					OFFSET 0.000000 -0.000003 20.815094
					CHANNELS 3 Xrotation Yrotation Zrotation
					JOINT LeftFoot
					{
						OFFSET 0.000000 -0.000003 16.975708
						CHANNELS 3 Xrotation Yrotation Zrotation
						JOINT LeftToeBase
						{
							OFFSET 0.000000 -0.000003 14.350204
							CHANNELS 3 Xrotation Yrotation Zrotation
							End Site
							{
								OFFSET -0.027260 0.801060 6.949707
							}
						}
					}
				}
			}
		}
	}
}
MOTION
Frames: 4
Frame Time: 0.041667
56.065208 -13.380417 84.913490 -0.086477 -1.285878 -14.688342 -0.716735 -0.166501 0.611590 2.571294 -0.334579 1.222176 4.216226 -0.319916 1.226094 14.862632 40.581873 -5.147043 12.676539 -24.635464 -3.611838 4.466044 10.380570 25.844309 -93.532050 -170.601282 -47.918538 -0.000001 0.000001 -0.000001 35.939728 10.155514 -1.032093 0.000001 0.000000 -3.000003 -5.000227 -7.998764 0.000178 -33.461592 63.178164 39.196461 -66.829856 119.289459 119.953408 -0.000001 0.000002 -0.000002 124.377608 -10.878295 37.448233 -0.000005 -0.000001 3.004028 -5.000223 7.998841 -0.000125 -3.675187 -174.225831 1.598383 -179.999991 0.000005 -1.054000 161.794409 -2.915646 -1.155431 -0.000003 -0.000004 0.456786 77.129160 6.654720 2.218849 26.161153 -7.345579 1.053921 -11.405910 173.389966 2.538773 -0.000005 -0.000004 -0.890930 -9.208417 -0.814577 0.634527 0.000001 0.000003 0.279270 65.810341 -5.817921 -4.901132 25.463113 7.355619 -0.006028 
56.077309 -13.416622 84.922600 -0.142709 -1.227457 -14.814057 -0.717138 -0.162251 0.599861 2.570412 -0.326057 1.198796 4.215344 -0.311674 1.202620 14.917219 40.396167 -5.090193 12.692463 -24.482151 -3.545319 4.745847 9.876761 26.060937 -93.238229 -170.231400 -47.344293 -0.000001 0.000001 -0.000002 37.332369 9.822250 -0.974735 0.000002 0.000001 -2.999996 -5.000228 -7.998765 0.000180 -33.279636 63.120619 38.991187 -66.802419 119.205365 119.641842 -0.000002 -0.000001 -0.000004 124.373619 -10.834090 37.309051 -0.000002 -0.000000 3.003999 -5.000225 7.998846 -0.000128 -3.604830 -174.273274 1.581586 -179.999991 0.000005 -1.056995 161.834980 -2.903015 -1.152001 -0.000002 -0.000003 0.456628 77.101942 6.655555 2.218144 26.158429 -7.345564 1.049733 -11.310309 173.305340 2.467450 -0.000006 -0.000004 -0.890343 -9.210735 -0.783466 0.640395 0.000001 0.000004 0.279129 65.817561 -5.802480 -4.938032 25.463116 7.355619 -0.006038 
56.054905 -13.414219 84.924194 -0.198677 -1.168673 -14.945653 -0.717273 -0.158713 0.588298 2.570060 -0.318955 1.175768 4.215002 -0.304848 1.179497 14.963315 40.218855 -5.029280 12.710384 -24.329593 -3.478250 5.029298 9.373735 26.284812 -92.939955 -169.854715 -46.793025 -0.000000 0.000000 0.000003 38.724816 9.485176 -0.909379 0.000003 -0.000000 -3.000001 -5.000230 -7.998763 0.000179 -33.114458 63.061948 38.805177 -66.779777 119.126108 119.336109 0.000000 -0.000000 0.000002 124.369371 -10.790457 37.167977 -0.000003 0.000002 3.003970 -5.000222 7.998841 -0.000127 -3.535501 -174.320757 1.565531 -179.999991 0.000005 -1.059998 161.876358 -2.890390 -1.148564 -0.000002 -0.000004 0.456423 77.073514 6.656445 2.217323 26.155390 -7.345545 1.045143 -11.212808 173.219676 2.396158 -0.000006 -0.000005 -0.889820 -9.212991 -0.753060 0.646276 0.000000 0.000004 0.279043 65.824616 -5.787219 -4.974580 25.463119 7.355621 -0.006037 
56.069607 -13.431718 84.929794 -0.253940 -1.109940 -15.082521 -0.717229 -0.155879 0.577026 2.570089 -0.313261 1.153312 4.215028 -0.299423 1.156968 15.002413 40.050365 -4.965396 12.728396 -24.178426 -3.411548 5.315658 8.871670 26.513005 -92.637678 -169.473427 -46.269832 -0.000002 0.000000 -0.000002 40.111386 9.145653 -0.838055 0.000001 0.000002 -3.000000 -5.000233 -7.998765 0.000175 -32.964716 63.002628 38.637014 -66.761261 119.052998 119.035990 -0.000001 -0.000001 -0.000001 124.365082 -10.746242 37.027767 -0.000003 -0.000001 3.003952 -5.000227 7.998841 -0.000127 -3.467461 -174.365277 1.550223 -179.999991 0.000005 -1.061993 161.918787 -2.879684 -1.144700 -0.000002 -0.000004 0.456155 77.043878 6.657388 2.216475 26.152159 -7.345522 1.040191 -11.113648 173.135897 2.324959 -0.000004 -0.000004 -0.889386 -9.215090 -0.723719 0.652112 0.000001 0.000003 0.279021 65.831658 -5.772315 -5.010210 25.463116 7.355619 -0.006048 
